<svg width="57" height="57" viewBox="0 0 57 57" fill="none" xmlns="http://www.w3.org/2000/svg">
<g clip-path="url(#clip0)">
<path d="M57 28.4996C57 44.249 44.2521 57.012 28.4938 57.012C12.7603 57.012 0 44.249 0 28.4996C0 12.7503 12.7603 -0.0251465 28.4938 -0.0251465C44.2397 -0.0251465 57 12.7627 57 28.4996Z" fill="url(#paint0_radial)"/>
<path d="M33.4989 47.9543C33.5236 47.88 33.536 47.8056 33.5608 47.7189C33.821 47.7189 34.0935 47.7313 34.3537 47.7189C37.8968 47.4835 41.0931 44.3485 41.1674 41.04C41.2046 39.5406 40.5232 38.6237 39.049 38.2024C37.5499 37.7687 36.0385 37.3846 34.5519 36.9261C31.9379 36.1206 31.0955 36.0463 29.3858 38.6856C29.0142 39.268 28.6054 39.3796 27.9983 38.983C23.9596 36.3189 20.528 33.0476 17.7777 29.0576C16.2911 26.9015 16.638 27.3352 18.3971 25.9226C19.4254 25.0924 19.8342 24.1382 19.4873 22.8619C18.9422 20.8546 18.3724 18.8348 17.7901 16.8398C17.4184 15.5759 16.4521 14.9439 15.1389 14.8572C13.2187 14.7332 11.8312 15.6006 10.5551 16.9265C8.17653 19.4172 7.65621 22.3539 8.80835 25.4393C9.67555 27.7317 10.9516 29.9126 12.24 32.0067C16.4521 38.8343 22.4358 43.6422 29.7203 46.8763C30.9096 47.4091 32.2352 47.6074 33.4989 47.9543ZM47.0644 28.9585C46.8786 27.9424 46.7423 26.9263 46.5193 25.935C44.5495 17.0504 36.3235 9.82629 27.2798 9.04564C26.4373 8.97129 25.9542 9.26868 25.9046 9.87586C25.8551 10.4706 26.2887 10.83 27.1311 10.9043C29.1752 11.0778 31.1574 11.5487 33.0033 12.4409C39.9781 15.8237 44.2522 21.1891 45.0946 29.0576C45.1813 29.8382 45.553 30.21 46.1848 30.1232C46.8414 30.0241 47.0396 29.5656 47.0644 28.9585ZM41.3161 28.1654C41.2789 27.8556 41.2541 27.4219 41.155 27.0254C39.8914 21.7467 36.8066 17.9302 31.814 15.7989C30.4141 15.2041 28.816 15.0182 27.3046 14.7085C26.7223 14.5846 26.3135 14.9687 26.2887 15.5511C26.2639 16.0839 26.586 16.4309 27.1435 16.5052C27.3541 16.53 27.5647 16.5672 27.7753 16.5919C30.0053 16.8522 32.0246 17.67 33.8086 18.9959C37.042 21.4122 39.0985 24.5472 39.4578 28.6611C39.5073 29.2682 39.7303 29.7515 40.3745 29.7019C40.709 29.6772 41.0683 29.3426 41.2913 29.0452C41.4276 28.8841 41.3161 28.5372 41.3161 28.1654ZM27.5647 20.3093C27.1807 20.3093 26.7347 20.52 26.6851 21.1396C26.6232 21.8335 27.0568 22.1061 27.701 22.1804C30.1292 22.4778 31.9379 23.7541 33.0653 25.8854C33.4865 26.6785 33.6351 27.6202 33.8705 28.5C34.0192 29.0328 34.2298 29.4665 34.874 29.3798C35.4934 29.293 35.7784 28.8717 35.7164 28.2522C35.6916 27.9672 35.6297 27.6822 35.5801 27.3972C34.9359 23.7169 31.2689 20.4085 27.5647 20.3093Z" fill="url(#paint1_linear)"/>
<path d="M33.4989 47.9544C32.2353 47.6074 30.9221 47.3968 29.7328 46.8763C22.4483 43.6422 16.477 38.822 12.2525 32.0068C10.9517 29.9003 9.68803 27.7318 8.82082 25.4394C7.65629 22.3663 8.17661 19.4172 10.5676 16.9266C11.8436 15.6007 13.2312 14.7333 15.1514 14.8572C16.4522 14.9316 17.4309 15.5635 17.8026 16.8398C18.3848 18.8472 18.9547 20.8546 19.4998 22.862C19.8467 24.1383 19.4379 25.0924 18.4096 25.9226C16.6504 27.3353 16.2912 26.9016 17.7902 29.0576C20.5405 33.0476 23.9721 36.319 28.0108 38.9831C28.6054 39.3796 29.0267 39.2557 29.3983 38.6857C31.1079 36.034 31.9504 36.1207 34.5644 36.9261C36.051 37.3846 37.5624 37.7687 39.0614 38.2024C40.5357 38.6237 41.2171 39.5407 41.1799 41.04C41.1056 44.3485 37.9093 47.4835 34.3661 47.719C34.106 47.7313 33.8334 47.719 33.5733 47.719C33.5361 47.8057 33.5113 47.88 33.4989 47.9544Z" fill="url(#paint2_linear)"/>
<path d="M47.0645 28.9585C47.0397 29.578 46.8415 30.0241 46.1849 30.1233C45.553 30.21 45.1814 29.8383 45.0947 29.0576C44.2522 21.2015 39.9782 15.8237 33.0034 12.4409C31.1575 11.5487 29.1753 11.0778 27.1312 10.9043C26.2887 10.83 25.8551 10.4706 25.9047 9.87586C25.9543 9.26868 26.4374 8.97129 27.2798 9.04564C36.3235 9.82629 44.562 17.0504 46.5194 25.9226C46.7423 26.9263 46.8786 27.9424 47.0645 28.9585Z" fill="url(#paint3_linear)"/>
<path d="M41.3161 28.1655C41.3161 28.5373 41.4276 28.8842 41.2913 29.0453C41.0559 29.3303 40.6967 29.6773 40.3745 29.702C39.7303 29.7516 39.5197 29.2683 39.4578 28.6612C39.0985 24.5597 37.042 21.4123 33.8086 18.996C32.0246 17.6577 30.0053 16.8523 27.7753 16.592C27.5647 16.5673 27.3541 16.5301 27.1435 16.5053C26.586 16.431 26.2639 16.0964 26.2887 15.5512C26.3259 14.9688 26.7223 14.5847 27.3046 14.7086C28.816 15.0183 30.4141 15.2042 31.814 15.799C36.819 17.9303 39.8914 21.7468 41.155 27.0255C41.2541 27.4344 41.2789 27.8557 41.3161 28.1655Z" fill="url(#paint4_linear)"/>
<path d="M27.5647 20.3093C31.2813 20.4085 34.9359 23.7169 35.5801 27.3972C35.6297 27.6822 35.6916 27.9672 35.7164 28.2522C35.7783 28.8717 35.4934 29.293 34.874 29.3798C34.2421 29.4789 34.0191 29.0452 33.8705 28.5C33.6351 27.6202 33.4864 26.6785 33.0652 25.8854C31.9379 23.7541 30.1291 22.4778 27.7009 22.1804C27.0567 22.1061 26.6231 21.8335 26.6851 21.1395C26.7346 20.52 27.1806 20.3217 27.5647 20.3093Z" fill="url(#paint5_linear)"/>
</g>
<defs>
<radialGradient id="paint0_radial" cx="0" cy="0" r="1" gradientUnits="userSpaceOnUse" gradientTransform="translate(28.4984 28.4979) rotate(7.03134) scale(91.1175 91.1368)">
<stop stop-color="#2D2D2D"/>
<stop offset="1" stop-color="#2D2D2D"/>
</radialGradient>
<linearGradient id="paint1_linear" x1="8.22422" y1="28.4983" x2="47.0646" y2="28.4983" gradientUnits="userSpaceOnUse">
<stop stop-color="white"/>
<stop offset="0.5171" stop-color="white"/>
<stop offset="0.907" stop-color="white"/>
</linearGradient>
<linearGradient id="paint2_linear" x1="8.22431" y1="31.4021" x2="41.158" y2="31.4021" gradientUnits="userSpaceOnUse">
<stop stop-color="white"/>
<stop offset="0.5171" stop-color="white"/>
<stop offset="0.907" stop-color="white"/>
</linearGradient>
<linearGradient id="paint3_linear" x1="25.9001" y1="19.5847" x2="47.0647" y2="19.5847" gradientUnits="userSpaceOnUse">
<stop stop-color="white"/>
<stop offset="0.488095" stop-color="white"/>
<stop offset="0.5171" stop-color="white"/>
<stop offset="0.907" stop-color="white"/>
</linearGradient>
<linearGradient id="paint4_linear" x1="26.2876" y1="22.1929" x2="41.3577" y2="22.1929" gradientUnits="userSpaceOnUse">
<stop stop-color="white"/>
<stop offset="0.5171" stop-color="white"/>
<stop offset="0.907" stop-color="white"/>
</linearGradient>
<linearGradient id="paint5_linear" x1="26.6734" y1="24.8545" x2="35.7155" y2="24.8545" gradientUnits="userSpaceOnUse">
<stop stop-color="white"/>
<stop offset="0.5171" stop-color="white"/>
<stop offset="0.907" stop-color="white"/>
</linearGradient>
<clipPath id="clip0">
<rect width="57" height="57" fill="white"/>
</clipPath>
</defs>
</svg>
